<svg width="64" height="64" viewBox="0 0 64 64" fill="none" xmlns="http://www.w3.org/2000/svg">
<g id="icon/ic_secure_payment">
<g id="Vector">
<path d="M22.2371 4.89426C22.0756 4.51151 21.6862 4.25888 21.2695 4.27663C20.8585 4.29401 20.4882 4.57201 20.3604 4.96351C20.0789 5.82513 21.0429 6.60338 21.8239 6.13838C22.2492 5.88488 22.4199 5.35088 22.2371 4.89426Z" fill="#FA541C"/>
<path d="M26.5127 4.89426C26.3502 4.50913 25.9573 4.25551 25.5374 4.27688C25.1199 4.29813 24.7486 4.58601 24.6282 4.98676C24.5084 5.38501 24.6512 5.82538 24.9826 6.07651C25.3356 6.34401 25.8379 6.34388 26.1909 6.07651C26.5528 5.80226 26.6806 5.31388 26.5127 4.89426Z" fill="#FA541C"/>
<path d="M17.9609 4.89425C17.7949 4.50088 17.3891 4.24613 16.961 4.27875C16.542 4.31088 16.1816 4.60725 16.0695 5.01188C15.8256 5.89113 16.8531 6.6275 17.607 6.1C17.9911 5.83113 18.1345 5.32775 17.9609 4.89425Z" fill="#FA541C"/>
<path d="M23.4485 57.7203H19.1728C18.6195 57.7203 18.1707 58.1689 18.1707 58.7224C18.1707 59.2758 18.6193 59.7245 19.1728 59.7245H23.4485C24.0018 59.7245 24.4506 59.2759 24.4506 58.7224C24.4506 58.1689 24.0018 57.7203 23.4485 57.7203Z" fill="#FA541C"/>
<path d="M17.0354 42.7557H11.6909C11.1376 42.7557 10.6888 43.2043 10.6888 43.7578C10.6888 44.3113 11.1374 44.76 11.6909 44.76H17.0354C17.5888 44.76 18.0376 44.3113 18.0376 43.7578C18.0376 43.2043 17.5888 42.7557 17.0354 42.7557Z" fill="#FA541C"/>
<path d="M20.2421 45.9624H11.6909C11.1376 45.9624 10.6888 46.411 10.6888 46.9645C10.6888 47.5179 11.1374 47.9667 11.6909 47.9667H20.2421C20.7954 47.9667 21.2442 47.518 21.2442 46.9645C21.2442 46.4112 20.7956 45.9624 20.2421 45.9624Z" fill="#FA541C"/>
<path d="M21.3107 23.5156C19.5794 23.5156 18.1709 24.9241 18.1709 26.6555C18.1709 28.3869 19.5794 29.7954 21.3107 29.7954C23.0421 29.7954 24.4506 28.3869 24.4506 26.6555C24.4506 24.9241 23.042 23.5156 21.3107 23.5156ZM21.3107 27.7913C20.6845 27.7913 20.175 27.2817 20.175 26.6555C20.175 26.0293 20.6845 25.5198 21.3107 25.5198C21.937 25.5198 22.4465 26.0293 22.4465 26.6555C22.4465 27.2817 21.9369 27.7913 21.3107 27.7913Z" fill="#FA541C"/>
<path d="M27.7293 14.4045C25.7628 13.3722 23.5434 12.8266 21.311 12.8266C19.0786 12.8266 16.8593 13.3721 14.8928 14.4045C14.4028 14.6617 14.214 15.2675 14.4713 15.7575C14.7286 16.2476 15.3343 16.4362 15.8243 16.179C17.5046 15.297 19.4019 14.8309 21.3111 14.8309C23.2204 14.8309 25.1176 15.297 26.7979 16.179C26.9466 16.257 27.1059 16.294 27.2628 16.294C27.7374 16.294 28.1576 15.9476 28.2479 15.4815C28.3305 15.0525 28.1158 14.6075 27.7293 14.4045Z" fill="#FA541C"/>
<path d="M24.752 20.0875C23.6961 19.5332 22.506 19.2402 21.3106 19.2402C20.1153 19.2402 18.9251 19.5332 17.8693 20.0875C17.3793 20.3447 17.1905 20.9505 17.4478 21.4405C17.705 21.9305 18.3108 22.1194 18.8008 21.862C19.5816 21.4523 20.426 21.2444 21.3108 21.2444C22.1955 21.2444 23.04 21.4521 23.8208 21.862C24.3048 22.116 24.9201 21.9238 25.1738 21.4405C25.4308 20.9505 25.2421 20.3445 24.752 20.0875Z" fill="#FA541C"/>
<path d="M26.2403 17.2469C24.7278 16.4532 23.0231 16.0334 21.3108 16.0334C19.5984 16.0334 17.8938 16.453 16.3814 17.2469C15.8914 17.5042 15.7026 18.1098 15.9599 18.5999C16.217 19.0899 16.8228 19.2788 17.3129 19.0214C18.5566 18.3685 19.9016 18.0376 21.3106 18.0376C22.7198 18.0376 24.0648 18.3688 25.3084 19.0214C25.4573 19.0994 25.6165 19.1364 25.7735 19.1364C26.2481 19.1364 26.6684 18.79 26.7586 18.3239C26.8415 17.8949 26.6269 17.4499 26.2403 17.2469Z" fill="#FA541C"/>
<path d="M59.8418 13.3663L56.7988 13.2107C55.3548 13.137 50.2331 12.2054 46.7083 10.443L45.2743 9.72587C44.9923 9.58475 44.6601 9.58475 44.3781 9.72587L42.9441 10.443C41.8668 10.9816 40.6401 11.4423 39.4149 11.825V5.27763C39.4149 2.36762 37.0473 0 34.1372 0H8.4838C5.57368 0 3.20605 2.36762 3.20605 5.27763V19.2178C3.20605 19.7711 3.65468 20.2199 4.20818 20.2199C4.76155 20.2199 5.2103 19.7712 5.2103 19.2178V10.5553H37.4107V12.3875C35.3864 12.896 33.6121 13.1719 32.8534 13.2106L29.8104 13.3661C29.2776 13.3934 28.8596 13.8334 28.8596 14.3669V30.9977H10.6216C8.89018 30.9977 7.48168 32.4062 7.48168 34.1376V48.0332C7.48168 49.7646 8.89018 51.1731 10.6216 51.1731H31.9994C33.7308 51.1731 35.1393 49.7646 35.1393 48.0332V42.6651C35.8856 43.3678 36.6642 44.0305 37.4623 44.6445C37.4293 44.7439 37.4107 44.8498 37.4107 44.9603V53.4446H5.2103V23.4044C5.2103 22.851 4.76168 22.4023 4.20818 22.4023C3.6548 22.4023 3.20605 22.8509 3.20605 23.4044V58.7224C3.20605 61.6325 5.57368 64 8.48368 64H34.1372C37.0473 64 39.4148 61.6324 39.4148 58.7224V46.0234C40.6979 46.8503 41.9987 47.5384 43.2629 48.0441L44.4539 48.5205C44.6912 48.6155 44.9611 48.6155 45.1983 48.5205L46.3892 48.0441C49.5743 46.7701 52.9931 44.3537 55.7689 41.4146C58.0607 38.9881 60.7926 35.2653 60.7926 31.3097V14.367C60.7928 13.8335 60.3747 13.3935 59.8418 13.3663ZM37.4107 58.7224C37.4107 60.5274 35.9422 61.9959 34.1372 61.9959H8.4838C6.6788 61.9959 5.2103 60.5274 5.2103 58.7224V55.4489H37.4107V58.7224ZM5.2103 8.55112V5.27763C5.2103 3.47263 6.6788 2.00413 8.4838 2.00413H34.1373C35.9423 2.00413 37.4108 3.47263 37.4108 5.27763V8.55112H5.2103ZM9.4858 34.1377C9.4858 33.5115 9.9953 33.002 10.6216 33.002H29.0219C29.2379 34.1596 29.6571 35.2825 30.1957 36.3423H9.4858V34.1377ZM9.4858 38.3465H31.3908C31.6754 38.7635 31.9714 39.165 32.2727 39.549H9.4858V38.3465ZM33.1352 48.0334C33.1352 48.6596 32.6257 49.1691 31.9994 49.1691H10.6216C9.9953 49.1691 9.4858 48.6596 9.4858 48.0334V41.5532H33.1351L33.1352 48.0334ZM54.3121 40.0384C51.7288 42.7736 48.5697 45.0134 45.6449 46.1833L44.8262 46.5107L44.0074 46.1833C41.0827 45.0134 37.9237 42.7736 35.3404 40.0384C33.2982 37.8761 30.8638 34.6065 30.8638 31.3096V15.3193L32.9559 15.2124C34.3637 15.1404 39.7756 14.2679 43.8403 12.2355L44.8262 11.7426L45.8121 12.2355C49.8768 14.2679 55.2888 15.1404 56.6964 15.2124L58.7886 15.3193V31.3096C58.7886 34.6065 56.3542 37.8761 54.3121 40.0384Z" fill="#FA541C"/>
<path d="M47.0981 25.6311H43.691V24.1614H49.2358C50.8936 24.1614 52.2421 22.8129 52.2421 21.1551C52.2421 19.4974 50.8936 18.1489 49.2358 18.1489H47.9666V17.9485C47.9666 16.2907 46.6181 14.9422 44.9603 14.9422C43.3026 14.9422 41.9541 16.2907 41.9541 17.9485V18.2222C39.5296 18.6361 37.6785 20.7525 37.6785 23.293V26.4997C37.6785 29.3362 39.9861 31.6437 42.8224 31.6437H46.2296V33.1135H40.6847C39.027 33.1135 37.6785 34.462 37.6785 36.1197C37.6785 37.7775 39.027 39.126 40.6847 39.126H41.9539V39.3264C41.9539 40.9841 43.3025 42.3326 44.9602 42.3326C46.618 42.3326 47.9664 40.9841 47.9664 39.3264V39.0526C50.3909 38.6387 52.2421 36.5224 52.2421 33.9819V30.7752C52.2421 27.9387 49.9346 25.6311 47.0981 25.6311ZM50.2379 33.9819C50.2379 35.7132 48.8295 37.1217 47.0981 37.1217H46.9645C46.4111 37.1217 45.9623 37.5704 45.9623 38.1239V39.3264C45.9623 39.879 45.5128 40.3285 44.9602 40.3285C44.4076 40.3285 43.9581 39.879 43.9581 39.3264V38.1239C43.9581 37.5705 43.5095 37.1217 42.956 37.1217H40.6846C40.132 37.1217 39.6824 36.6722 39.6824 36.1196C39.6824 35.567 40.132 35.1175 40.6846 35.1175H47.0979C47.7242 35.1175 48.2337 34.608 48.2337 33.9817V30.7751C48.2337 30.1489 47.7242 29.6394 47.0979 29.6394H42.8224C41.0911 29.6394 39.6826 28.2309 39.6826 26.4995V23.2929C39.6826 21.5615 41.0911 20.153 42.8224 20.153H42.9561C43.5094 20.153 43.9582 19.7044 43.9582 19.1509V17.9484C43.9582 17.3957 44.4077 16.9462 44.9603 16.9462C45.513 16.9462 45.9625 17.3957 45.9625 17.9484V19.1509C45.9625 19.7042 46.4111 20.153 46.9646 20.153H49.236C49.7886 20.153 50.2381 20.6025 50.2381 21.1551C50.2381 21.7077 49.7886 22.1572 49.236 22.1572H42.8224C42.1962 22.1572 41.6867 22.6667 41.6867 23.293V26.4996C41.6867 27.1259 42.1962 27.6354 42.8224 27.6354H47.0981C48.8295 27.6354 50.2379 29.0439 50.2379 30.7752V33.9819Z" fill="#FA541C"/>
</g>
</g>
</svg>
